<?xml version="1.0" encoding="UTF-8" standalone="no"?>
<!DOCTYPE svg PUBLIC "-//W3C//DTD SVG 1.1//EN"
 "http://www.w3.org/Graphics/SVG/1.1/DTD/svg11.dtd">
<!-- Generated by graphviz version 2.43.0 (0)
 -->
<!-- Title: %3 Pages: 1 -->
<svg width="796pt" height="138pt"
 viewBox="0.00 0.00 796.49 138.02" xmlns="http://www.w3.org/2000/svg" xmlns:xlink="http://www.w3.org/1999/xlink">
<g id="graph0" class="graph" transform="scale(1 1) rotate(0) translate(4 134.02)">
<title>%3</title>
<polygon fill="white" stroke="transparent" points="-4,4 -4,-134.02 792.49,-134.02 792.49,4 -4,4"/>
<!-- User -->
<g id="node1" class="node">
<title>User</title>
<ellipse fill="#b3d1ff" stroke="#b3d1ff" cx="29.25" cy="-63.02" rx="29.5" ry="18"/>
<text text-anchor="middle" x="29.25" y="-59.32" font-family="Arial" font-size="14.00">User</text>
</g>
<!-- EFM -->
<g id="node2" class="node">
<title>EFM</title>
<polygon fill="#e3eaff" stroke="#e3eaff" points="257.49,-81.02 203.49,-81.02 203.49,-45.02 257.49,-45.02 257.49,-81.02"/>
<text text-anchor="middle" x="230.49" y="-59.32" font-family="Arial" font-size="14.00">EFM</text>
</g>
<!-- User&#45;&gt;EFM -->
<g id="edge1" class="edge">
<title>User&#45;&gt;EFM</title>
<path fill="none" stroke="black" d="M58.79,-63.02C94.11,-63.02 154.27,-63.02 192.93,-63.02"/>
<polygon fill="black" stroke="black" points="193.22,-66.52 203.22,-63.02 193.22,-59.52 193.22,-66.52"/>
<text text-anchor="middle" x="130.99" y="-66.82" font-family="Times,serif" font-size="14.00">Initiates Action</text>
</g>
<!-- EFM&#45;&gt;EFM -->
<g id="edge9" class="edge">
<title>EFM&#45;&gt;EFM</title>
<path fill="none" stroke="black" d="M212.77,-81.18C210.04,-90.56 215.95,-99.02 230.49,-99.02 239.36,-99.02 245.02,-95.88 247.47,-91.3"/>
<polygon fill="black" stroke="black" points="250.97,-91.41 248.22,-81.18 243.99,-90.89 250.97,-91.41"/>
<text text-anchor="middle" x="230.49" y="-102.82" font-family="Times,serif" font-size="14.00">Internal Processing</text>
</g>
<!-- IBR -->
<g id="node3" class="node">
<title>IBR</title>
<polygon fill="#e3eaff" stroke="#e3eaff" points="538.49,-71.02 484.49,-71.02 484.49,-35.02 538.49,-35.02 538.49,-71.02"/>
<text text-anchor="middle" x="511.49" y="-49.32" font-family="Arial" font-size="14.00">IBR</text>
</g>
<!-- EFM&#45;&gt;IBR -->
<g id="edge2" class="edge">
<title>EFM&#45;&gt;IBR</title>
<path fill="none" stroke="black" d="M257.5,-50.45C263.3,-48.2 269.5,-46.2 275.49,-45.02 344.95,-31.37 428.12,-39.88 474.57,-46.8"/>
<polygon fill="black" stroke="black" points="474.04,-50.26 484.46,-48.33 475.11,-43.34 474.04,-50.26"/>
<text text-anchor="middle" x="353.99" y="-48.82" font-family="Times,serif" font-size="14.00">Send File/Request</text>
</g>
<!-- S3 -->
<g id="node4" class="node">
<title>S3</title>
<polygon fill="#e3eaff" stroke="#e3eaff" points="782.49,-118.02 698.49,-118.02 698.49,-82.02 782.49,-82.02 782.49,-118.02"/>
<text text-anchor="middle" x="740.49" y="-96.32" font-family="Arial" font-size="14.00">S3 Storage</text>
</g>
<!-- EFM&#45;&gt;S3 -->
<g id="edge4" class="edge">
<title>EFM&#45;&gt;S3</title>
<path fill="none" stroke="black" d="M257.65,-75.5C263.43,-77.92 269.6,-80.26 275.49,-82.02 402.61,-120.16 439.88,-118.18 572.49,-113.02 611.3,-111.52 655.07,-108.04 688.06,-105.07"/>
<polygon fill="black" stroke="black" points="688.73,-108.52 698.37,-104.12 688.09,-101.55 688.73,-108.52"/>
<text text-anchor="middle" x="511.49" y="-118.82" font-family="Times,serif" font-size="14.00">Store/Fetch Data</text>
</g>
<!-- Audit -->
<g id="node5" class="node">
<title>Audit</title>
<polygon fill="#e3eaff" stroke="#e3eaff" points="788.49,-56.02 692.49,-56.02 692.49,-20.02 788.49,-20.02 788.49,-56.02"/>
<text text-anchor="middle" x="740.49" y="-34.32" font-family="Arial" font-size="14.00">Audit Service</text>
</g>
<!-- EFM&#45;&gt;Audit -->
<g id="edge5" class="edge">
<title>EFM&#45;&gt;Audit</title>
<path fill="none" stroke="black" d="M253.64,-44.94C260.31,-40.35 267.89,-35.9 275.49,-33.02 399.29,13.82 440.56,-0.43 572.49,-11.02 609.21,-13.97 650.04,-20.51 682.13,-26.42"/>
<polygon fill="black" stroke="black" points="681.76,-29.91 692.23,-28.31 683.05,-23.03 681.76,-29.91"/>
<text text-anchor="middle" x="511.49" y="-14.82" font-family="Times,serif" font-size="14.00">Log Event</text>
</g>
<!-- IBR&#45;&gt;EFM -->
<g id="edge3" class="edge">
<title>IBR&#45;&gt;EFM</title>
<path fill="none" stroke="black" d="M484.17,-55.88C469.07,-57.39 449.74,-59.12 432.49,-60.02 374.91,-63.03 307.92,-63.41 267.66,-63.3"/>
<polygon fill="black" stroke="black" points="267.55,-59.8 257.53,-63.26 267.52,-66.8 267.55,-59.8"/>
<text text-anchor="middle" x="353.99" y="-66.82" font-family="Times,serif" font-size="14.00">Response/Notification</text>
</g>
<!-- IBR&#45;&gt;IBR -->
<g id="edge8" class="edge">
<title>IBR&#45;&gt;IBR</title>
<path fill="none" stroke="black" d="M489.79,-71.18C486.45,-80.56 493.68,-89.02 511.49,-89.02 522.35,-89.02 529.28,-85.88 532.28,-81.3"/>
<polygon fill="black" stroke="black" points="535.78,-81.45 533.2,-71.18 528.81,-80.82 535.78,-81.45"/>
<text text-anchor="middle" x="511.49" y="-92.82" font-family="Times,serif" font-size="14.00">Internal Routing</text>
</g>
<!-- IBR&#45;&gt;S3 -->
<g id="edge6" class="edge">
<title>IBR&#45;&gt;S3</title>
<path fill="none" stroke="black" d="M538.53,-58.42C574.99,-65.96 641.99,-79.84 688.55,-89.48"/>
<polygon fill="black" stroke="black" points="687.95,-92.93 698.45,-91.53 689.37,-86.07 687.95,-92.93"/>
<text text-anchor="middle" x="632.49" y="-89.82" font-family="Times,serif" font-size="14.00">Fetch/Store</text>
</g>
<!-- IBR&#45;&gt;Audit -->
<g id="edge7" class="edge">
<title>IBR&#45;&gt;Audit</title>
<path fill="none" stroke="black" d="M538.53,-51.3C573.29,-49.01 635.8,-44.88 681.91,-41.83"/>
<polygon fill="black" stroke="black" points="682.32,-45.31 692.07,-41.16 681.86,-38.33 682.32,-45.31"/>
<text text-anchor="middle" x="632.49" y="-50.82" font-family="Times,serif" font-size="14.00">Log Event</text>
</g>
</g>
</svg>
